<svg width="936" height="727" viewBox="0 0 936 727" fill="none" xmlns="http://www.w3.org/2000/svg">
<path d="M664.813 0.898438C654.241 9.55542 638.435 23.6153 625.375 37.6523C618.845 44.6719 613.012 51.6739 608.866 57.9834C606.793 61.1379 605.148 64.1089 604.047 66.8145C602.945 69.5243 602.4 71.9383 602.496 73.9883L602.511 74.3203L602.211 74.4629L511.902 117.372L500.505 151.088C539.404 120.848 647.365 60.8524 779.95 54.5137C799.691 52.0977 831.146 47.4755 861.362 41.459C891.61 35.436 920.536 28.0308 935.259 20.0723L935.872 20.8418C919.849 39.1188 890.471 67.6435 854.39 93.8535C818.32 120.055 775.513 143.971 732.622 152.995C710.171 159.316 673.348 174.32 635.895 198.78C598.928 222.924 561.378 256.263 536.419 299.53C549.355 291.723 582.007 278.018 622.967 278.012C636.706 276.512 658.651 273.415 679.857 268.997C690.466 266.787 700.884 264.246 709.994 261.412C719.11 258.576 726.885 255.454 732.23 252.089L733.159 251.504L732.991 252.588C726.644 293.504 685.001 377.92 569.283 389.434L584.359 418.128L664.705 455.058L665.855 455.586L664.655 455.986L568.833 487.926L518.929 574.262L518.768 574.542L518.446 574.509C489.82 571.596 443.244 571.372 396.589 580.166C349.921 588.963 303.264 606.767 274.373 639.841L274.328 639.893L274.27 639.931C263.314 647.068 249.664 659.818 244.216 674.857C241.498 682.363 240.824 690.428 243.534 698.662C246.244 706.9 252.357 715.357 263.297 723.612L264.274 724.349L263.061 724.508C237.512 727.847 198.704 727.625 165.308 716.084C131.894 704.536 103.822 681.618 99.9984 639.557L99.9389 638.897L100.589 639.021C106.733 640.183 117.084 641.58 128.14 641.987C139.026 642.388 150.546 641.825 159.408 639.166C157.675 631.385 155.637 619.51 155.035 608.577C154.727 603.004 154.792 597.656 155.466 593.213C156.137 588.795 157.427 585.163 159.662 583.141L160.091 582.752L160.412 583.234C165.721 591.197 175.095 601.932 185.949 608.28C191.372 611.452 197.138 613.514 202.933 613.612C208.709 613.71 214.55 611.857 220.155 607.145L314.132 507.169L314.155 507.146L314.179 507.125L353.179 475.125L353.348 474.987L353.564 475.017L441.263 486.976L510.231 389.929L466.809 403.438L427.408 460.297L427.232 460.55L426.926 460.507C416.354 459.008 398.817 456.985 380.577 455.786C362.347 454.588 343.452 454.215 330.107 456.001L160.357 507.924C155.931 517.622 151.474 541.211 168.366 559.674L169.118 560.496L168.003 560.512C161.861 560.596 151.897 559.386 141.903 555.49C131.99 551.626 122.008 545.101 115.723 534.53C102.764 535.382 71.0038 549.328 46.4467 599.232L46.1645 599.805L45.6762 599.395C28.4326 584.913 7.75949 557.011 1.7289 520.33C-4.30548 483.625 4.33145 438.19 45.6137 388.691L46.4564 387.681L46.4975 388.996C46.7035 395.632 48.6175 402.204 52.9613 406.7C57.2837 411.174 64.0922 413.675 74.2797 412.03C84.4863 410.382 98.0499 404.575 115.779 392.457C133.452 380.377 155.235 362.045 181.92 335.379C179.183 327.592 175.941 315.565 174.986 304.392C174.502 298.734 174.602 293.266 175.667 288.669C176.728 284.09 178.761 280.315 182.19 278.114L284.164 187.638L285.318 186.615L284.985 188.12L275.506 230.998C287.325 205.525 308.48 167.548 335.997 131.21C365.107 92.7693 401.377 56.1068 441.29 38.0557L442.404 37.5527L441.962 38.6924C437.967 49.0138 432.274 65.321 428.18 80.6904C426.133 88.3758 424.488 95.815 423.655 102.148C422.879 108.039 422.817 112.897 423.73 116.105C444.199 96.8314 480.402 68.1947 523.302 44.1875C566.6 19.9574 616.771 0.412741 664.493 0.0117188L665.911 0L664.813 0.898438ZM356.886 292.024L356.753 292.055L356.655 292.147L284.155 360.147L283.233 361.012H346.496C351.467 361.012 356.749 358.343 361.996 354.12C367.253 349.888 372.54 344.042 377.53 337.567C387.466 324.673 396.274 309.221 401.377 298.867L445.25 272.942L444.886 272.024L356.886 292.024Z" fill="#DC2626"/>
</svg>
